<?xml version="1.0" encoding="utf-8"?>
<!-- Generator: Adobe Illustrator 21.0.0, SVG Export Plug-In . SVG Version: 6.00 Build 0)  -->
<svg version="1.1" id="Capa_1" xmlns="http://www.w3.org/2000/svg" xmlns:xlink="http://www.w3.org/1999/xlink" x="0px" y="0px"
	 viewBox="0 0 60 60" style="enable-background:new 0 0 60 60;" xml:space="preserve">
<style type="text/css">
	.st0{fill:#C9A84C;stroke:#A5962B;stroke-miterlimit:10;}
</style>
<g>
	<path class="st0" d="M52.5,51.9c-0.2,1.1-1.3,2-2.4,2H9.5c-1.1,0-2.2-0.9-2.4-2L1,22.8c-0.2-1.1,0.5-2,1.6-2H57
		c1.1,0,1.8,0.9,1.6,2L52.5,51.9z"/>
</g>
<path class="st0" d="M52,14.5c-0.4-1.9-2.3-3.4-4.2-3.4H22.3v-0.6v-1V8.6c0-1-0.8-1.7-1.7-1.7H7.3c-1,0-1.7,0.8-1.7,1.7v0.9v0.9v6.2
	h16.7h30.2L52,14.5z"/>
</svg>
