<?xml version="1.0" encoding="utf-8"?>
<!-- Generator: Adobe Illustrator 21.0.0, SVG Export Plug-In . SVG Version: 6.00 Build 0)  -->
<svg version="1.1" id="Capa_1" xmlns="http://www.w3.org/2000/svg" xmlns:xlink="http://www.w3.org/1999/xlink" x="0px" y="0px"
	 viewBox="0 0 60 60" style="enable-background:new 0 0 60 60;" xml:space="preserve">
<style type="text/css">
	.st0{fill:none;stroke:#434142;stroke-miterlimit:10;}
</style>
<g id="Capa_1_1_">
	<g>
		<path class="st0" d="M49.2,55.7c0-1.8-6.4-3.1-15-3.5l-1-5.6c6.6-1.5,11.8-7,12.6-13.8c0.5-0.4,0.8-1,0.8-1.6v-2.9
			c0-1.1-0.9-2-2-2s-2,0.9-2,2v2.9c0,0.6,0.2,1.1,0.6,1.5c-0.8,6.6-6.5,11.9-13.5,11.9s-12.8-5.4-13.5-12.2c0.2-0.3,0.3-0.7,0.3-1.1
			v-2.9c0-1.1-0.9-2-2-2s-2,0.9-2,2v2.9c0,0.8,0.5,1.5,1.2,1.9c0.8,6.6,5.9,12.1,12.5,13.6l-1,5.6c-8.1,0.4-13.9,1.8-13.9,3.4
			c0,0.1,0,0.1,0,0.2s0,0.1,0,0.2v2c0,0.7,0.6,1.3,1.3,1.3h35.3c0.7,0,1.3-0.6,1.3-1.3V55.7z"/>
		<path class="st0" d="M33.8,23.6c-0.9,0-1.6-0.7-1.6-1.6s0.7-1.6,1.6-1.6h6.3v-2.1h-6.3c-0.9,0-1.6-0.7-1.6-1.6s0.7-1.6,1.6-1.6
			h6.3v-1.8c0-0.3,0-0.6,0-0.8h-6.2c-0.9,0-1.6-0.7-1.6-1.6s0.7-1.6,1.6-1.6h5.5c-1.6-3.7-5.3-6.4-9.6-6.4s-8,2.6-9.6,6.4h5
			c0.9,0,1.6,0.7,1.6,1.6s-0.7,1.6-1.6,1.6h-5.8c0,0.3,0,0.6,0,0.8v1.8h5.9c0.9,0,1.6,0.7,1.6,1.6c0,0.9-0.7,1.6-1.6,1.6h-5.9v2.1
			h5.9c0.9,0,1.6,0.7,1.6,1.6s-0.7,1.6-1.6,1.6h-5.9v6.8c0,5.7,4.7,10.4,10.4,10.4s10.4-4.7,10.4-10.4v-6.8
			C40.2,23.6,33.8,23.6,33.8,23.6z"/>
	</g>
</g>
<g id="Capa_2">
</g>
</svg>
